# xmcd
#
# Track frame offsets: 
#        150
#        17473
#        33736
#        47504
#        70613
#        91474
#        107427
#        119323
#        135810
#        154161
#
# Disc length: 2252 seconds
#
# Revision: 0
# Processed by: cddbd v1.5.2PL0 Copyright (c) Steve Scherf et al.
# Submitted via: ExactAudioCopy v1.0b1
#
DISCID=7008ca0a
DTITLE=Cary Ann Hearst - Lions and Lambs
DYEAR=2011
DGENRE=
TTITLE0=The Hardest Thing
TTITLE1=Hell's Bells
TTITLE2=Can't Say Goodbye
TTITLE3=Eastern Continental Divide
TTITLE4=Are You Ready to Die?
TTITLE5=The Last Time
TTITLE6=American Made Machine
TTITLE7=The Thread
TTITLE8=Forsaken Blues
TTITLE9=Who's Gonna Raise These Babies?
EXTD=
EXTT0=
EXTT1=
EXTT2=
EXTT3=
EXTT4=
EXTT5=
EXTT6=
EXTT7=
EXTT8=
EXTT9=
PLAYORDER=
